<svg xmlns="http://www.w3.org/2000/svg" version="1.1" xmlns:xlink="http://www.w3.org/1999/xlink" width="1000" height="1000"><metadata><rdf:RDF xmlns:rdf="http://www.w3.org/1999/02/22-rdf-syntax-ns#" xmlns:dc="http://purl.org/dc/elements/1.1/"><rdf:Description><dc:creator>RealFaviconGenerator</dc:creator><dc:source>https://realfavicongenerator.net</dc:source></rdf:Description></rdf:RDF></metadata><g clip-path="url(#SvgjsClipPath1077)"><rect width="1000" height="1000" fill="#ffffff"></rect><g transform="matrix(0.7272727272727273,0,0,0.7272727272727273,100,100)"><svg xmlns="http://www.w3.org/2000/svg" width="1100" height="1100" viewBox="0 0 1100 1100" fill="none"><rect width="1100" height="1100" rx="50" fill="white"></rect><path d="M896.395 430.352V791.124H827.016V430.352H896.395ZM861.706 216.818C875.068 216.818 886.374 221.701 895.624 231.465C904.875 240.716 909.5 252.022 909.5 265.384C909.5 278.232 904.875 289.281 895.624 298.532C886.374 307.782 875.068 312.408 861.706 312.408C848.344 312.408 837.038 307.782 827.787 298.532C818.536 289.281 813.911 278.232 813.911 265.384C813.911 252.022 818.536 240.716 827.787 231.465C837.038 221.701 848.344 216.818 861.706 216.818Z" fill="black"></path><path d="M568.067 112V556.027L703.742 420.352H795.476L641.3 569.903L810.894 781.124H720.701L591.964 616.926L568.067 640.824V781.124H498.688V112H568.067Z" fill="black"></path><path d="M421.672 420.352V781.124H352.292V420.352H421.672ZM386.982 206.818C400.344 206.818 411.65 211.701 420.901 221.465C430.151 230.716 434.777 242.022 434.777 255.384C434.777 268.232 430.151 279.281 420.901 288.532C411.65 297.782 400.344 302.408 386.982 302.408C373.62 302.408 362.314 297.782 353.063 288.532C343.813 279.281 339.188 268.232 339.188 255.384C339.188 242.022 343.813 230.716 353.063 221.465C362.314 211.701 373.62 206.818 386.982 206.818Z" fill="black"></path><path d="M896 988.379H353V919H896V988.379Z" fill="black"></path><path d="M896 883.379H353V814H896V883.379Z" fill="black"></path><path d="M273.484 420.534V987.902H204.105V420.534H273.484ZM238.795 207C252.156 207 263.463 211.882 272.713 221.647C281.964 230.897 286.589 242.204 286.589 255.565C286.589 268.413 281.964 279.463 272.713 288.713C263.463 297.964 252.156 302.589 238.795 302.589C225.433 302.589 214.126 297.964 204.876 288.713C195.625 279.463 191 268.413 191 255.565C191 242.204 195.625 230.897 204.876 221.647C214.126 211.882 225.433 207 238.795 207Z" fill="black"></path></svg></g></g><defs><clipPath id="SvgjsClipPath1077"><rect width="1000" height="1000" x="0" y="0" rx="150" ry="150"></rect></clipPath></defs></svg>